<svg width="256" height="226" viewBox="0 0 256 226" fill="none" xmlns="http://www.w3.org/2000/svg">
<rect x="0.5" y="0.5" width="255" height="200.739" rx="15.5" fill="white"/>
<rect x="0.5" y="0.5" width="255" height="200.739" rx="15.5" stroke="#E4E4E7"/>
<g clip-path="url(#clip0_4439_128)">
<mask id="path-3-inside-1_4439_128" fill="white">
<path d="M16 16H115V40H16V16Z"/>
</mask>
<path d="M16 40.5H16.99V39.5H16V40.5ZM18.97 40.5H20.95V39.5H18.97V40.5ZM22.93 40.5H24.91V39.5H22.93V40.5ZM26.89 40.5H28.87V39.5H26.89V40.5ZM30.85 40.5H32.83V39.5H30.85V40.5ZM34.81 40.5H36.79V39.5H34.81V40.5ZM38.77 40.5H40.75V39.5H38.77V40.5ZM42.73 40.5H44.71V39.5H42.73V40.5ZM46.69 40.5H48.67V39.5H46.69V40.5ZM50.65 40.5H52.63V39.5H50.65V40.5ZM54.61 40.5H56.59V39.5H54.61V40.5ZM58.57 40.5H60.55V39.5H58.57V40.5ZM62.53 40.5H64.51V39.5H62.53V40.5ZM66.49 40.5H68.47V39.5H66.49V40.5ZM70.45 40.5H72.43V39.5H70.45V40.5ZM74.41 40.5H76.39V39.5H74.41V40.5ZM78.37 40.5H80.35V39.5H78.37V40.5ZM82.33 40.5H84.31V39.5H82.33V40.5ZM86.29 40.5H88.27V39.5H86.29V40.5ZM90.25 40.5H92.23V39.5H90.25V40.5ZM94.21 40.5H96.19V39.5H94.21V40.5ZM98.17 40.5H100.15V39.5H98.17V40.5ZM102.13 40.5H104.11V39.5H102.13V40.5ZM106.09 40.5H108.07V39.5H106.09V40.5ZM110.05 40.5H112.03V39.5H110.05V40.5ZM114.01 40.5H115V39.5H114.01V40.5ZM16 41H16.99V39H16V41ZM18.97 41H20.95V39H18.97V41ZM22.93 41H24.91V39H22.93V41ZM26.89 41H28.87V39H26.89V41ZM30.85 41H32.83V39H30.85V41ZM34.81 41H36.79V39H34.81V41ZM38.77 41H40.75V39H38.77V41ZM42.73 41H44.71V39H42.73V41ZM46.69 41H48.67V39H46.69V41ZM50.65 41H52.63V39H50.65V41ZM54.61 41H56.59V39H54.61V41ZM58.57 41H60.55V39H58.57V41ZM62.53 41H64.51V39H62.53V41ZM66.49 41H68.47V39H66.49V41ZM70.45 41H72.43V39H70.45V41ZM74.41 41H76.39V39H74.41V41ZM78.37 41H80.35V39H78.37V41ZM82.33 41H84.31V39H82.33V41ZM86.29 41H88.27V39H86.29V41ZM90.25 41H92.23V39H90.25V41ZM94.21 41H96.19V39H94.21V41ZM98.17 41H100.15V39H98.17V41ZM102.13 41H104.11V39H102.13V41ZM106.09 41H108.07V39H106.09V41ZM110.05 41H112.03V39H110.05V41ZM114.01 41H115V39H114.01V41Z" fill="#D4D4D8" mask="url(#path-3-inside-1_4439_128)"/>
<path d="M19.56 34L16.216 22.48H17.968L20.392 31.192L22.816 22.488L24.576 22.48L27 31.192L29.424 22.48H31.184L27.832 34H26.168L23.696 25.384L21.224 34H19.56ZM35.4051 34.24C34.5465 34.24 33.7918 34.0533 33.1411 33.68C32.4958 33.3013 31.9918 32.776 31.6291 32.104C31.2718 31.4267 31.0931 30.6427 31.0931 29.752C31.0931 28.808 31.2691 27.9893 31.6211 27.296C31.9785 26.6027 32.4745 26.0667 33.1091 25.688C33.7438 25.3093 34.4825 25.12 35.3251 25.12C36.2051 25.12 36.9545 25.3253 37.5731 25.736C38.1918 26.1413 38.6531 26.72 38.9571 27.472C39.2665 28.224 39.3891 29.1173 39.3251 30.152H37.6531V29.544C37.6425 28.5413 37.4505 27.8 37.0771 27.32C36.7091 26.84 36.1465 26.6 35.3891 26.6C34.5518 26.6 33.9225 26.864 33.5011 27.392C33.0798 27.92 32.8691 28.6827 32.8691 29.68C32.8691 30.6293 33.0798 31.3653 33.5011 31.888C33.9225 32.4053 34.5305 32.664 35.3251 32.664C35.8478 32.664 36.2985 32.5467 36.6771 32.312C37.0611 32.072 37.3598 31.7307 37.5731 31.288L39.2131 31.808C38.8771 32.5813 38.3678 33.1813 37.6851 33.608C37.0025 34.0293 36.2425 34.24 35.4051 34.24ZM32.3251 30.152V28.848H38.4931V30.152H32.3251ZM44.952 34.24C44.0933 34.24 43.3387 34.0533 42.688 33.68C42.0427 33.3013 41.5387 32.776 41.176 32.104C40.8187 31.4267 40.64 30.6427 40.64 29.752C40.64 28.808 40.816 27.9893 41.168 27.296C41.5253 26.6027 42.0213 26.0667 42.656 25.688C43.2907 25.3093 44.0293 25.12 44.872 25.12C45.752 25.12 46.5013 25.3253 47.12 25.736C47.7387 26.1413 48.2 26.72 48.504 27.472C48.8133 28.224 48.936 29.1173 48.872 30.152H47.2V29.544C47.1893 28.5413 46.9973 27.8 46.624 27.32C46.256 26.84 45.6933 26.6 44.936 26.6C44.0987 26.6 43.4693 26.864 43.048 27.392C42.6267 27.92 42.416 28.6827 42.416 29.68C42.416 30.6293 42.6267 31.3653 43.048 31.888C43.4693 32.4053 44.0773 32.664 44.872 32.664C45.3947 32.664 45.8453 32.5467 46.224 32.312C46.608 32.072 46.9067 31.7307 47.12 31.288L48.76 31.808C48.424 32.5813 47.9147 33.1813 47.232 33.608C46.5493 34.0293 45.7893 34.24 44.952 34.24ZM41.872 30.152V28.848H48.04V30.152H41.872ZM50.6589 34L50.6669 22.48H52.3629V29.52L55.7549 25.36H57.8829L54.2989 29.68L58.2509 34H55.9789L52.3629 29.84V34H50.6589ZM59.2175 34V22.24H60.8895V34H59.2175ZM64.4599 37.84L66.1319 33.288L66.1559 34.632L62.3879 25.36H64.1319L66.9479 32.52H66.4359L69.1239 25.36H70.8199L66.0519 37.84H64.4599ZM79.3323 34.24C78.5056 34.24 77.8123 34.04 77.2523 33.64C76.6923 33.2347 76.2683 32.688 75.9803 32C75.6923 31.312 75.5483 30.536 75.5483 29.672C75.5483 28.808 75.6896 28.032 75.9723 27.344C76.2603 26.656 76.6816 26.1147 77.2363 25.72C77.7963 25.32 78.4843 25.12 79.3003 25.12C80.1109 25.12 80.8096 25.32 81.3963 25.72C81.9883 26.1147 82.4443 26.656 82.7643 27.344C83.0843 28.0267 83.2443 28.8027 83.2443 29.672C83.2443 30.536 83.0843 31.3147 82.7643 32.008C82.4496 32.696 81.9989 33.24 81.4123 33.64C80.8309 34.04 80.1376 34.24 79.3323 34.24ZM75.2683 37.84V25.36H76.7563V31.576H76.9483V37.84H75.2683ZM79.1003 32.728C79.6336 32.728 80.0736 32.592 80.4203 32.32C80.7723 32.048 81.0336 31.6827 81.2043 31.224C81.3803 30.76 81.4683 30.2427 81.4683 29.672C81.4683 29.1067 81.3803 28.5947 81.2043 28.136C81.0336 27.6773 80.7696 27.312 80.4123 27.04C80.0549 26.768 79.5989 26.632 79.0443 26.632C78.5216 26.632 78.0896 26.76 77.7483 27.016C77.4123 27.272 77.1616 27.6293 76.9963 28.088C76.8363 28.5467 76.7563 29.0747 76.7563 29.672C76.7563 30.2693 76.8363 30.7973 76.9963 31.256C77.1563 31.7147 77.4096 32.0747 77.7563 32.336C78.1029 32.5973 78.5509 32.728 79.1003 32.728ZM85.1706 34V22.24H86.8426V34H85.1706ZM91.685 34.24C91.045 34.24 90.509 34.1227 90.077 33.888C89.645 33.648 89.317 33.3333 89.093 32.944C88.8743 32.5493 88.765 32.1173 88.765 31.648C88.765 31.2107 88.8423 30.8267 88.997 30.496C89.1517 30.1653 89.381 29.8853 89.685 29.656C89.989 29.4213 90.3623 29.232 90.805 29.088C91.189 28.976 91.6237 28.8773 92.109 28.792C92.5943 28.7067 93.1037 28.6267 93.637 28.552C94.1757 28.4773 94.709 28.4027 95.237 28.328L94.629 28.664C94.6397 27.9867 94.4957 27.4853 94.197 27.16C93.9037 26.8293 93.397 26.664 92.677 26.664C92.2237 26.664 91.8077 26.7707 91.429 26.984C91.0503 27.192 90.7863 27.5387 90.637 28.024L89.077 27.544C89.2903 26.8027 89.6957 26.2133 90.293 25.776C90.8957 25.3387 91.6957 25.12 92.693 25.12C93.4663 25.12 94.1383 25.2533 94.709 25.52C95.285 25.7813 95.7063 26.1973 95.973 26.768C96.1117 27.0507 96.197 27.3493 96.229 27.664C96.261 27.9787 96.277 28.3173 96.277 28.68V34H94.797V32.024L95.085 32.28C94.7277 32.9413 94.2717 33.4347 93.717 33.76C93.1677 34.08 92.4903 34.24 91.685 34.24ZM91.981 32.872C92.4557 32.872 92.8637 32.7893 93.205 32.624C93.5463 32.4533 93.821 32.2373 94.029 31.976C94.237 31.7147 94.373 31.4427 94.437 31.16C94.5277 30.904 94.5783 30.616 94.589 30.296C94.605 29.976 94.613 29.72 94.613 29.528L95.157 29.728C94.629 29.808 94.149 29.88 93.717 29.944C93.285 30.008 92.893 30.072 92.541 30.136C92.1943 30.1947 91.885 30.2667 91.613 30.352C91.3837 30.432 91.1783 30.528 90.997 30.64C90.821 30.752 90.6797 30.888 90.573 31.048C90.4717 31.208 90.421 31.4027 90.421 31.632C90.421 31.856 90.477 32.064 90.589 32.256C90.701 32.4427 90.8717 32.592 91.101 32.704C91.3303 32.816 91.6237 32.872 91.981 32.872ZM99.038 37.84L100.71 33.288L100.734 34.632L96.966 25.36H98.71L101.526 32.52H101.014L103.702 25.36H105.398L100.63 37.84H99.038ZM109.955 34.232C108.905 34.232 108.049 34 107.387 33.536C106.726 33.072 106.321 32.4187 106.171 31.576L107.883 31.312C107.99 31.76 108.235 32.1147 108.619 32.376C109.009 32.632 109.491 32.76 110.067 32.76C110.59 32.76 110.998 32.6533 111.291 32.44C111.59 32.2267 111.739 31.9333 111.739 31.56C111.739 31.3413 111.686 31.1653 111.579 31.032C111.478 30.8933 111.262 30.7627 110.931 30.64C110.601 30.5173 110.097 30.3653 109.419 30.184C108.678 29.992 108.089 29.7867 107.651 29.568C107.219 29.344 106.91 29.0853 106.723 28.792C106.542 28.4933 106.451 28.1333 106.451 27.712C106.451 27.1893 106.59 26.7333 106.867 26.344C107.145 25.9547 107.534 25.6533 108.035 25.44C108.542 25.2267 109.134 25.12 109.811 25.12C110.473 25.12 111.062 25.224 111.579 25.432C112.097 25.64 112.515 25.936 112.835 26.32C113.155 26.6987 113.347 27.144 113.411 27.656L111.699 27.968C111.641 27.552 111.446 27.224 111.115 26.984C110.785 26.744 110.355 26.6133 109.827 26.592C109.321 26.5707 108.91 26.656 108.595 26.848C108.281 27.0347 108.123 27.2933 108.123 27.624C108.123 27.816 108.182 27.9787 108.299 28.112C108.422 28.2453 108.657 28.3733 109.003 28.496C109.35 28.6187 109.862 28.7653 110.539 28.936C111.265 29.1227 111.841 29.3307 112.267 29.56C112.694 29.784 112.998 30.0533 113.179 30.368C113.366 30.6773 113.459 31.0533 113.459 31.496C113.459 32.3493 113.147 33.0187 112.523 33.504C111.905 33.9893 111.049 34.232 109.955 34.232Z" fill="#27272A"/>
<path d="M18.544 73L24.352 58.792H16.96V55.72H27.856V58.792L22.072 73H18.544ZM35.7747 73.312C34.9107 73.312 34.0867 73.14 33.3027 72.796C32.5187 72.444 31.8347 71.952 31.2507 71.32C30.6747 70.688 30.2627 69.944 30.0147 69.088L33.1827 68.248C33.3507 68.88 33.6787 69.372 34.1667 69.724C34.6627 70.068 35.1987 70.24 35.7747 70.24C36.2707 70.24 36.7227 70.12 37.1307 69.88C37.5467 69.64 37.8747 69.316 38.1147 68.908C38.3627 68.5 38.4867 68.048 38.4867 67.552C38.4867 66.808 38.2307 66.172 37.7187 65.644C37.2147 65.108 36.5667 64.84 35.7747 64.84C35.5347 64.84 35.3027 64.876 35.0787 64.948C34.8547 65.012 34.6387 65.104 34.4307 65.224L32.9667 62.656L38.4627 58.096L38.7027 58.792H30.6867V55.72H41.4867V58.792L37.2147 62.92L37.1907 62.008C38.1827 62.16 39.0187 62.508 39.6987 63.052C40.3867 63.588 40.9067 64.252 41.2587 65.044C41.6187 65.828 41.7987 66.664 41.7987 67.552C41.7987 68.64 41.5227 69.62 40.9707 70.492C40.4187 71.356 39.6867 72.044 38.7747 72.556C37.8627 73.06 36.8627 73.312 35.7747 73.312ZM50.6984 73.36C49.5304 73.36 48.4904 73.124 47.5784 72.652C46.6744 72.172 45.9624 71.516 45.4424 70.684C44.9304 69.844 44.6744 68.888 44.6744 67.816C44.6744 66.904 44.8784 66.044 45.2864 65.236C45.7024 64.428 46.2984 63.768 47.0744 63.256L47.0024 64.264C46.4184 63.696 45.9584 63.096 45.6224 62.464C45.2944 61.832 45.1304 61.12 45.1304 60.328C45.1304 59.328 45.3664 58.456 45.8384 57.712C46.3184 56.968 46.9744 56.392 47.8064 55.984C48.6464 55.568 49.6104 55.36 50.6984 55.36C51.7864 55.36 52.7464 55.568 53.5784 55.984C54.4184 56.392 55.0744 56.968 55.5464 57.712C56.0264 58.456 56.2664 59.328 56.2664 60.328C56.2664 61.12 56.1104 61.832 55.7984 62.464C55.4864 63.088 55.0104 63.696 54.3704 64.288V63.28C55.1304 63.76 55.7144 64.408 56.1224 65.224C56.5384 66.04 56.7464 66.904 56.7464 67.816C56.7464 68.888 56.4864 69.844 55.9664 70.684C55.4464 71.516 54.7304 72.172 53.8184 72.652C52.9064 73.124 51.8664 73.36 50.6984 73.36ZM50.6984 70.288C51.4664 70.288 52.0904 70.08 52.5704 69.664C53.0504 69.248 53.2904 68.632 53.2904 67.816C53.2904 67.008 53.0504 66.392 52.5704 65.968C52.0904 65.536 51.4664 65.32 50.6984 65.32C49.9304 65.32 49.3104 65.536 48.8384 65.968C48.3664 66.392 48.1304 67.008 48.1304 67.816C48.1304 68.632 48.3664 69.248 48.8384 69.664C49.3104 70.08 49.9304 70.288 50.6984 70.288ZM50.6984 62.224C51.3224 62.224 51.8304 62.072 52.2224 61.768C52.6144 61.456 52.8104 60.976 52.8104 60.328C52.8104 59.68 52.6144 59.2 52.2224 58.888C51.8304 58.568 51.3224 58.408 50.6984 58.408C50.0744 58.408 49.5664 58.568 49.1744 58.888C48.7824 59.2 48.5864 59.68 48.5864 60.328C48.5864 60.976 48.7824 61.456 49.1744 61.768C49.5664 62.072 50.0744 62.224 50.6984 62.224ZM59.6275 76.24L59.8195 74.872C60.2035 74.904 60.5155 74.84 60.7555 74.68C60.9955 74.528 61.1595 74.304 61.2475 74.008C61.3435 73.72 61.3635 73.384 61.3075 73H59.6275V69.736H62.8915V73C62.8915 74.152 62.6235 75.024 62.0875 75.616C61.5515 76.208 60.7315 76.416 59.6275 76.24ZM73.2453 73.36C72.0773 73.36 71.0373 73.124 70.1253 72.652C69.2213 72.172 68.5093 71.516 67.9893 70.684C67.4773 69.844 67.2213 68.888 67.2213 67.816C67.2213 66.904 67.4253 66.044 67.8333 65.236C68.2493 64.428 68.8453 63.768 69.6213 63.256L69.5493 64.264C68.9653 63.696 68.5053 63.096 68.1693 62.464C67.8413 61.832 67.6773 61.12 67.6773 60.328C67.6773 59.328 67.9133 58.456 68.3853 57.712C68.8653 56.968 69.5213 56.392 70.3533 55.984C71.1933 55.568 72.1573 55.36 73.2453 55.36C74.3333 55.36 75.2933 55.568 76.1253 55.984C76.9653 56.392 77.6213 56.968 78.0933 57.712C78.5733 58.456 78.8133 59.328 78.8133 60.328C78.8133 61.12 78.6573 61.832 78.3453 62.464C78.0333 63.088 77.5573 63.696 76.9173 64.288V63.28C77.6773 63.76 78.2613 64.408 78.6693 65.224C79.0853 66.04 79.2933 66.904 79.2933 67.816C79.2933 68.888 79.0333 69.844 78.5133 70.684C77.9933 71.516 77.2773 72.172 76.3653 72.652C75.4533 73.124 74.4133 73.36 73.2453 73.36ZM73.2453 70.288C74.0133 70.288 74.6373 70.08 75.1173 69.664C75.5973 69.248 75.8373 68.632 75.8373 67.816C75.8373 67.008 75.5973 66.392 75.1173 65.968C74.6373 65.536 74.0133 65.32 73.2453 65.32C72.4773 65.32 71.8573 65.536 71.3853 65.968C70.9133 66.392 70.6773 67.008 70.6773 67.816C70.6773 68.632 70.9133 69.248 71.3853 69.664C71.8573 70.08 72.4773 70.288 73.2453 70.288ZM73.2453 62.224C73.8693 62.224 74.3773 62.072 74.7693 61.768C75.1613 61.456 75.3573 60.976 75.3573 60.328C75.3573 59.68 75.1613 59.2 74.7693 58.888C74.3773 58.568 73.8693 58.408 73.2453 58.408C72.6213 58.408 72.1133 58.568 71.7213 58.888C71.3293 59.2 71.1333 59.68 71.1333 60.328C71.1333 60.976 71.3293 61.456 71.7213 61.768C72.1133 62.072 72.6213 62.224 73.2453 62.224ZM89.4464 73V70.312H81.9344V67.264L87.3824 55.72H91.1264L85.6784 67.264H89.4464V62.944H92.7584V67.264H94.2944V70.312H92.7584V73H89.4464ZM101.997 55.384C103.141 55.384 104.165 55.652 105.069 56.188C105.981 56.724 106.701 57.472 107.229 58.432C107.757 59.384 108.021 60.488 108.021 61.744V66.76C108.021 68.12 107.757 69.296 107.229 70.288C106.701 71.272 105.957 72.032 104.997 72.568C104.037 73.096 102.909 73.36 101.613 73.36C100.773 73.36 99.9734 73.236 99.2134 72.988C98.4614 72.732 97.7654 72.312 97.1254 71.728L99.4534 69.4C99.7414 69.688 100.073 69.912 100.449 70.072C100.833 70.232 101.221 70.312 101.613 70.312C102.237 70.312 102.777 70.168 103.233 69.88C103.697 69.584 104.053 69.204 104.301 68.74C104.557 68.268 104.685 67.768 104.685 67.24V64.672L105.237 65.272C104.749 65.776 104.177 66.164 103.521 66.436C102.865 66.7 102.189 66.832 101.493 66.832C100.405 66.832 99.4454 66.588 98.6134 66.1C97.7894 65.612 97.1414 64.944 96.6694 64.096C96.2054 63.248 95.9734 62.28 95.9734 61.192C95.9734 60.104 96.2494 59.124 96.8014 58.252C97.3534 57.372 98.0854 56.676 98.9974 56.164C99.9094 55.644 100.909 55.384 101.997 55.384ZM101.997 58.504C101.501 58.504 101.045 58.624 100.629 58.864C100.221 59.104 99.8934 59.428 99.6454 59.836C99.4054 60.244 99.2854 60.696 99.2854 61.192C99.2854 61.688 99.4054 62.144 99.6454 62.56C99.8854 62.968 100.209 63.296 100.617 63.544C101.025 63.784 101.477 63.904 101.973 63.904C102.469 63.904 102.921 63.784 103.329 63.544C103.745 63.296 104.073 62.968 104.313 62.56C104.561 62.144 104.685 61.688 104.685 61.192C104.685 60.712 104.565 60.268 104.325 59.86C104.085 59.452 103.761 59.124 103.353 58.876C102.945 58.628 102.493 58.504 101.997 58.504Z" fill="#27272A"/>
<path d="M189.333 28L194 23.3333L198.667 28" stroke="#16A34A" stroke-width="2" stroke-linecap="round" stroke-linejoin="round"/>
<path d="M194 32.6667V23.3333" stroke="#16A34A" stroke-width="2" stroke-linecap="round" stroke-linejoin="round"/>
<path d="M213.12 34V24.584L210.96 25.904V23.776L213.12 22.48H215.088V34H213.12ZM218.72 34L222.688 24.304H217.656V22.48H224.752V24.304L220.8 34H218.72ZM228.267 34L226.987 32.72L237.235 22.48L238.515 23.768L228.267 34ZM236.115 34.24C235.587 34.24 235.104 34.112 234.667 33.856C234.235 33.5947 233.888 33.248 233.627 32.816C233.366 32.3787 233.235 31.8933 233.235 31.36C233.235 30.8373 233.368 30.3573 233.635 29.92C233.902 29.4827 234.254 29.1333 234.691 28.872C235.128 28.6107 235.603 28.48 236.115 28.48C236.643 28.48 237.126 28.6107 237.563 28.872C238 29.128 238.347 29.4747 238.603 29.912C238.864 30.344 238.995 30.8267 238.995 31.36C238.995 31.8933 238.864 32.3787 238.603 32.816C238.347 33.248 238 33.5947 237.563 33.856C237.126 34.112 236.643 34.24 236.115 34.24ZM236.115 32.592C236.334 32.592 236.536 32.536 236.723 32.424C236.915 32.312 237.067 32.1627 237.179 31.976C237.291 31.7893 237.347 31.584 237.347 31.36C237.347 31.136 237.291 30.9307 237.179 30.744C237.067 30.5573 236.915 30.408 236.723 30.296C236.536 30.184 236.334 30.128 236.115 30.128C235.891 30.128 235.686 30.184 235.499 30.296C235.312 30.408 235.16 30.5573 235.043 30.744C234.931 30.9307 234.875 31.136 234.875 31.36C234.875 31.584 234.931 31.7893 235.043 31.976C235.16 32.1627 235.312 32.312 235.499 32.424C235.686 32.536 235.891 32.592 236.115 32.592ZM229.387 28C228.859 28 228.376 27.872 227.939 27.616C227.502 27.3547 227.152 27.008 226.891 26.576C226.635 26.1387 226.507 25.6533 226.507 25.12C226.507 24.5973 226.64 24.1173 226.907 23.68C227.174 23.2427 227.526 22.8933 227.963 22.632C228.4 22.3707 228.875 22.24 229.387 22.24C229.915 22.24 230.395 22.3707 230.827 22.632C231.264 22.888 231.614 23.2347 231.875 23.672C232.136 24.104 232.267 24.5867 232.267 25.12C232.267 25.6533 232.136 26.1387 231.875 26.576C231.614 27.008 231.264 27.3547 230.827 27.616C230.395 27.872 229.915 28 229.387 28ZM229.387 26.352C229.611 26.352 229.816 26.296 230.003 26.184C230.19 26.072 230.339 25.9227 230.451 25.736C230.563 25.5493 230.619 25.344 230.619 25.12C230.619 24.896 230.563 24.6907 230.451 24.504C230.339 24.3173 230.19 24.168 230.003 24.056C229.816 23.944 229.611 23.888 229.387 23.888C229.163 23.888 228.958 23.944 228.771 24.056C228.584 24.168 228.435 24.3173 228.323 24.504C228.211 24.6907 228.155 24.896 228.155 25.12C228.155 25.344 228.211 25.5493 228.323 25.736C228.435 25.9227 228.584 26.072 228.771 26.184C228.958 26.296 229.163 26.352 229.387 26.352Z" fill="#71717A"/>
<path d="M90.5 137L53.625 123L16 160.5V185.739H240V96L202.504 114L165.187 150.5L129.75 117L90.5 137Z" fill="url(#paint0_linear_4439_128)"/>
<path d="M16 160.5L53.8993 123L90.5 136.5L130 116.5L165 150L202.504 113L240 96" stroke="#16A34A" stroke-width="2" stroke-linecap="round"/>
</g>
<rect x="96" y="217.739" width="24" height="8" rx="4" fill="#71717A"/>
<circle cx="136" cy="221.739" r="4" fill="#D4D4D8"/>
<circle cx="156" cy="221.739" r="4" fill="#D4D4D8"/>
<defs>
<linearGradient id="paint0_linear_4439_128" x1="122.75" y1="146" x2="118.109" y2="208.656" gradientUnits="userSpaceOnUse">
<stop stop-color="#8AF9B2" stop-opacity="0.34"/>
<stop offset="1" stop-color="white" stop-opacity="0"/>
</linearGradient>
<clipPath id="clip0_4439_128">
<rect x="16" y="16" width="224" height="169.739" rx="8" fill="white"/>
</clipPath>
</defs>
</svg>
